<svg xmlns="http://www.w3.org/2000/svg" width="18.179" height="21.815" viewBox="0 0 18.179 21.815">
  <g id="bell" transform="translate(0 0)">
    <path id="Path_47332" data-name="Path 47332" d="M17.615,15.374a6.089,6.089,0,0,1-2.162-4.658V8.181A6.368,6.368,0,0,0,10,1.891V.909a.909.909,0,0,0-1.818,0v.982a6.367,6.367,0,0,0-5.454,6.29v2.534A6.1,6.1,0,0,1,.556,15.381a1.59,1.59,0,0,0,1.034,2.8h15a1.591,1.591,0,0,0,1.026-2.806Zm0,0" transform="translate(0)" fill="#022d4e"/>
    <path id="Path_47333" data-name="Path 47333" d="M138.292,450.727A3.414,3.414,0,0,0,141.632,448h-6.679a3.414,3.414,0,0,0,3.339,2.727Zm0,0" transform="translate(-129.203 -428.912)" fill="#022d4e"/>
  </g>
</svg>
