<svg xmlns="http://www.w3.org/2000/svg" width="32.754" height="13.003" viewBox="0 0 32.754 13.003">
  <g id="Group_221383" data-name="Group 221383" transform="translate(-101.769 -340.493)">
    <g id="Group_215921" data-name="Group 215921" transform="translate(102.519 341.243)">
      <g id="Group_215918" data-name="Group 215918">
        <path id="Path_53961" data-name="Path 53961" d="M97.985,322.793h0c0-2.8,1.956-5.062,4.37-5.062H125.49a8.649,8.649,0,0,0-1.641,5.062,9.5,9.5,0,0,0,1.641,5.061H102.355C99.941,327.854,97.985,325.588,97.985,322.793Z" transform="translate(-96.815 -317.025)" fill="none" stroke="#ec2c29" stroke-linecap="round" stroke-linejoin="round" stroke-width="1.5"/>
        <path id="Path_53962" data-name="Path 53962" d="M126.773,327.746H100.484c-2.742,0-4.965-2.575-4.965-5.752h0c0-3.176,2.223-5.751,4.965-5.751h26.289" transform="translate(-95.519 -316.243)" fill="none" stroke="#ec2c29" stroke-linecap="round" stroke-linejoin="round" stroke-width="1.5"/>
        <line id="Line_549" data-name="Line 549" x1="15.966" transform="translate(11.277 3.911)" fill="none" stroke="#ec2c29" stroke-linecap="round" stroke-linejoin="round" stroke-width="1.5"/>
        <line id="Line_550" data-name="Line 550" x1="20.744" transform="translate(6.29 5.768)" fill="none" stroke="#ec2c29" stroke-linecap="round" stroke-linejoin="round" stroke-width="1.5"/>
        <line id="Line_551" data-name="Line 551" x1="13.048" transform="translate(14.195 7.553)" fill="none" stroke="#ec2c29" stroke-linecap="round" stroke-linejoin="round" stroke-width="1.5"/>
      </g>
    </g>
  </g>
</svg>
