<svg xmlns="http://www.w3.org/2000/svg" width="42" height="26.448" viewBox="0 0 42 26.448">
  <g id="Group_221837" data-name="Group 221837" transform="translate(-94.769 -315.493)">
    <g id="Group_215921" data-name="Group 215921" transform="translate(95.519 316.243)">
      <g id="Group_215918" data-name="Group 215918">
        <path id="Path_53961" data-name="Path 53961" d="M97.985,322.793h0c0-2.8,1.956-5.062,4.37-5.062H125.49a8.649,8.649,0,0,0-1.641,5.062,9.5,9.5,0,0,0,1.641,5.061H102.355C99.941,327.854,97.985,325.588,97.985,322.793Z" transform="translate(-96.815 -317.025)" fill="none" stroke="#ec2c29" stroke-linecap="round" stroke-linejoin="round" stroke-width="1.5"/>
        <path id="Path_53962" data-name="Path 53962" d="M126.773,327.746H100.484c-2.742,0-4.965-2.575-4.965-5.752h0c0-3.176,2.223-5.751,4.965-5.751h26.289" transform="translate(-95.519 -316.243)" fill="none" stroke="#ec2c29" stroke-linecap="round" stroke-linejoin="round" stroke-width="1.5"/>
        <line id="Line_549" data-name="Line 549" x1="15.966" transform="translate(11.277 3.911)" fill="none" stroke="#ec2c29" stroke-linecap="round" stroke-linejoin="round" stroke-width="1.5"/>
        <line id="Line_550" data-name="Line 550" x1="20.744" transform="translate(6.29 5.768)" fill="none" stroke="#ec2c29" stroke-linecap="round" stroke-linejoin="round" stroke-width="1.5"/>
        <line id="Line_551" data-name="Line 551" x1="13.048" transform="translate(14.195 7.553)" fill="none" stroke="#ec2c29" stroke-linecap="round" stroke-linejoin="round" stroke-width="1.5"/>
      </g>
      <g id="Group_215919" data-name="Group 215919" transform="translate(2.696 13.445)">
        <path id="Path_53963" data-name="Path 53963" d="M101.764,351.129h0a5.37,5.37,0,0,1,5.632-5.061h29.822a7.6,7.6,0,0,0-2.115,5.061,8.307,8.307,0,0,0,2.115,5.062H107.4A5.37,5.37,0,0,1,101.764,351.129Z" transform="translate(-101.497 -345.361)" fill="none" stroke="#000" stroke-linecap="round" stroke-linejoin="round" stroke-width="2.055"/>
        <path id="Path_53964" data-name="Path 53964" d="M139,356.082H107.6c-3.534,0-6.4-2.575-6.4-5.751h0c0-3.177,2.865-5.752,6.4-5.752H139" transform="translate(-101.201 -344.579)" fill="none" stroke="#022d4e" stroke-linecap="round" stroke-miterlimit="10" stroke-width="1.5"/>
        <line id="Line_552" data-name="Line 552" x1="20.58" transform="translate(13.295 3.912)" fill="none" stroke="#000" stroke-linecap="round" stroke-linejoin="round" stroke-width="1.5"/>
        <line id="Line_553" data-name="Line 553" x1="26.739" transform="translate(6.867 5.768)" fill="none" stroke="#000" stroke-linecap="round" stroke-linejoin="round" stroke-width="1.5"/>
        <line id="Line_554" data-name="Line 554" x1="16.819" transform="translate(17.057 7.553)" fill="none" stroke="#000" stroke-linecap="round" stroke-linejoin="round" stroke-width="1.5"/>
      </g>
    </g>
  </g>
</svg>
