<svg xmlns="http://www.w3.org/2000/svg" xmlns:xlink="http://www.w3.org/1999/xlink" width="187.146" height="241.684" viewBox="0 0 187.146 241.684">
  <defs>
    <filter id="Path_47334" x="0" y="0" width="187.146" height="241.684" filterUnits="userSpaceOnUse">
      <feOffset dy="8" input="SourceAlpha"/>
      <feGaussianBlur stdDeviation="3" result="blur"/>
      <feFlood flood-opacity="0.161"/>
      <feComposite operator="in" in2="blur"/>
      <feComposite in="SourceGraphic"/>
    </filter>
    <filter id="Rectangle_163408" x="11.077" y="4.784" width="171.756" height="191.199" filterUnits="userSpaceOnUse">
      <feOffset dy="9" input="SourceAlpha"/>
      <feGaussianBlur stdDeviation="5" result="blur-2"/>
      <feFlood flood-opacity="0"/>
      <feComposite operator="in" in2="blur-2"/>
      <feComposite in="SourceGraphic"/>
    </filter>
  </defs>
  <g id="Group_215910" data-name="Group 215910" transform="translate(-801.7 -812.863)">
    <g id="Group_215863" data-name="Group 215863" transform="translate(811.709 815)">
      <g transform="matrix(1, 0, 0, 1, -10.01, -2.14)" filter="url(#Path_47334)">
        <path id="Path_47334-2" data-name="Path 47334" d="M249.535,484.07H102.649a19.5,19.5,0,0,1-19.441-19.441v-2.161a19.5,19.5,0,0,1,19.441-19.441H230.768a18.766,18.766,0,0,0,18.767-18.767V281.428a18.767,18.767,0,0,0-18.767-18.769H101.431a18.768,18.768,0,0,0-18.769,18.769V405.775" transform="translate(-72.53 -260.52)" fill="none" stroke="#022d4e" stroke-linecap="round" stroke-linejoin="round" stroke-width="2.274"/>
      </g>
      <line id="Line_520" data-name="Line 520" y2="12.961" transform="translate(0 150.674)" fill="none" stroke="#212193" stroke-linecap="round" stroke-linejoin="round" stroke-width="2.274"/>
      <line id="Line_521" data-name="Line 521" y2="4.855" transform="translate(0 174.17)" fill="none" stroke="#212193" stroke-linecap="round" stroke-linejoin="round" stroke-width="2.274"/>
      <path id="Path_47335" data-name="Path 47335" d="M101.056,379.246a12.556,12.556,0,0,0,0,25.111H234.713V379.246Z" transform="translate(-78.915 -190.366)" fill="#ec2c29"/>
      <path id="Path_47336" data-name="Path 47336" d="M101.056,379.246a12.556,12.556,0,0,0,0,25.111" transform="translate(-78.915 -190.366)" fill="none" stroke="#212193" stroke-linecap="round" stroke-linejoin="round" stroke-width="2.274"/>
      <line id="Line_522" data-name="Line 522" x2="137.705" transform="translate(26.597 197.388)" fill="none" stroke="#212193" stroke-linecap="round" stroke-linejoin="round" stroke-width="2.274"/>
      <line id="Line_523" data-name="Line 523" x2="124.737" transform="translate(33.081 206.3)" fill="none" stroke="#212193" stroke-linecap="round" stroke-linejoin="round" stroke-width="2.274"/>
      <g transform="matrix(1, 0, 0, 1, -10.01, -2.14)" filter="url(#Rectangle_163408)">
        <rect id="Rectangle_163408-2" data-name="Rectangle 163408" width="141.757" height="161.199" rx="8.567" transform="translate(26.08 10.78)" fill="rgba(255,199,102,0.25)"/>
      </g>
      <path id="Path_47337" data-name="Path 47337" d="M105.817,429.2h-4.076A13.883,13.883,0,0,1,88,415.175V282.018A13.883,13.883,0,0,1,101.741,268h4.076Z" transform="translate(-79.224 -259.35)" fill="#ff8a50"/>
      <line id="Line_524" data-name="Line 524" y1="168.492" transform="translate(26.596 5.405)" fill="none" stroke="#212193" stroke-linecap="round" stroke-linejoin="round" stroke-width="2.274"/>
    </g>
    <g id="Group_215905" data-name="Group 215905" transform="translate(839.653 872.445)">
      <g id="Group_215899" data-name="Group 215899" transform="translate(6.877 0)">
        <path id="Path_47338" data-name="Path 47338" d="M250.17,188.919a.315.315,0,0,1-.076.237.282.282,0,0,1-.185.089.334.334,0,0,1-.212-.062.427.427,0,0,1-.16-.211.964.964,0,0,1-.311.079,1.136,1.136,0,0,1-.316-.029,1.314,1.314,0,0,1-.442-.173.9.9,0,0,1-.288-.289.837.837,0,0,1-.118-.39,1.261,1.261,0,0,1,.074-.481,1.346,1.346,0,0,1,.092-.206q.054-.1.115-.19a1.549,1.549,0,0,1,.173-.208,1.594,1.594,0,0,1,1-.484,1.206,1.206,0,0,1,.2,0,1.338,1.338,0,0,1,.248.044,1.037,1.037,0,0,1,.228.092.3.3,0,0,1,.141.148.58.58,0,0,1,.039.122.274.274,0,0,1,0,.1q-.01.051-.027.108t-.039.143q-.035.141-.072.273t-.065.27l-.03.118c-.012.048-.023.1-.034.154s-.019.107-.026.156a.583.583,0,0,0-.007.124Zm-1.007-.5.145-.046a.686.686,0,0,0,.15-.066,3.9,3.9,0,0,1,.082-.546q.059-.268.138-.537a.865.865,0,0,0-.456.093.848.848,0,0,0-.344.3,1.579,1.579,0,0,0-.094.163.648.648,0,0,0-.06.172.363.363,0,0,0,.011.208.38.38,0,0,0,.1.152.422.422,0,0,0,.155.087A.386.386,0,0,0,249.163,188.424Z" transform="translate(-192.831 -184.464)" fill="#dd6028"/>
        <path id="Path_47339" data-name="Path 47339" d="M145.1,213.932a1.307,1.307,0,0,1-.259.126,1.164,1.164,0,0,1-.279.06.279.279,0,0,1-.1.1.33.33,0,0,1-.114.042.407.407,0,0,1-.105,0,.522.522,0,0,1-.069-.011.392.392,0,0,1-.152-.128.261.261,0,0,1-.04-.2l-1.335-2.3a.267.267,0,0,1-.029-.214.373.373,0,0,1,.115-.183.291.291,0,0,1,.422.036c.043.047.084.094.121.142a1.828,1.828,0,0,1,.119.174q.062.1.138.238t.181.338c.018-.03.038-.061.058-.09l.063-.093a.93.93,0,0,1,.227-.228,1.069,1.069,0,0,1,.289-.147.851.851,0,0,1,.318-.04.733.733,0,0,1,.313.091,1.334,1.334,0,0,1,.389.335,1.725,1.725,0,0,1,.275.475,1.441,1.441,0,0,1,.1.528.846.846,0,0,1-.16.494,1.649,1.649,0,0,1-.487.462Zm-.947-.984.312.538a.076.076,0,0,0,.026,0,.078.078,0,0,1,.026,0,.717.717,0,0,0,.593-.589,1.074,1.074,0,0,0-.131-.376,1.383,1.383,0,0,0-.259-.308.132.132,0,0,0-.114-.027.545.545,0,0,1-.114.015.284.284,0,0,0-.139.116.988.988,0,0,0-.1.193,1.213,1.213,0,0,0-.062.213c-.014.072-.024.131-.029.178Z" transform="translate(-117.452 -202.01)" fill="#ce295d"/>
        <path id="Path_47340" data-name="Path 47340" d="M347.437,288.834a.366.366,0,0,1,.06.269.287.287,0,0,1-.117.179.317.317,0,0,1-.215.047.41.41,0,0,1-.246-.132,1.1,1.1,0,0,1-.259.137,2.715,2.715,0,0,1-.285.086.915.915,0,0,1-.448-.008,1.041,1.041,0,0,1-.764-.961,1.759,1.759,0,0,1,.039-.5,1.471,1.471,0,0,1,.174-.435,1.141,1.141,0,0,1,.313-.337,1.21,1.21,0,0,1,.459-.2,1.578,1.578,0,0,1,.313-.031,1.892,1.892,0,0,1,.313.026c0-.076-.006-.163-.008-.262s0-.194,0-.287,0-.177.011-.251a.777.777,0,0,1,.026-.158.291.291,0,0,1,.111-.142.3.3,0,0,1,.158-.052.321.321,0,0,1,.29.174.281.281,0,0,0,.026.049.088.088,0,0,1,.016.049q0,.678,0,1.342t0,1.341C347.414,288.8,347.426,288.82,347.437,288.834Zm-.72-.285a.106.106,0,0,1,.039-.031.046.046,0,0,0,.028-.041v-.427q0-.21-.005-.427a1.538,1.538,0,0,0-.259-.031.947.947,0,0,0-.261.026.714.714,0,0,0-.233.1.5.5,0,0,0-.168.207c-.021.065-.04.131-.057.2a.827.827,0,0,0-.029.192.613.613,0,0,0,.023.184.535.535,0,0,0,.088.173.415.415,0,0,0,.049.041c.019.014.056.038.112.072a.984.984,0,0,0,.365-.036A.67.67,0,0,0,346.717,288.549Z" transform="translate(-262.24 -255.394)" fill="#232428"/>
        <path id="Path_47341" data-name="Path 47341" d="M164.172,190.285a.664.664,0,0,1,.122.073.4.4,0,0,1,.1.109.225.225,0,0,1,.026.142.344.344,0,0,1-.049.137.326.326,0,0,1-.1.1.288.288,0,0,1-.137.046.469.469,0,0,1-.238-.041.816.816,0,0,1-.207-.135.482.482,0,0,1-.15-.228.664.664,0,0,1-.031-.3.645.645,0,0,1,.091-.244.953.953,0,0,1,.179-.207c.072-.064.147-.127.223-.189.038-.028.077-.057.117-.088a1.431,1.431,0,0,0,.114-.1.582.582,0,0,0,.093-.114.293.293,0,0,0,.044-.14.236.236,0,0,0-.109-.169.259.259,0,0,0-.171-.021.6.6,0,0,0-.192.078,1.668,1.668,0,0,0-.176.122.506.506,0,0,0-.086.086c-.026.033-.053.065-.08.1a.6.6,0,0,1-.09.083.257.257,0,0,1-.111.047.315.315,0,0,1-.192-.029.334.334,0,0,1-.137-.122.3.3,0,0,1-.046-.173.3.3,0,0,1,.075-.184,2.127,2.127,0,0,1,.282-.282,1.691,1.691,0,0,1,.323-.212,1.327,1.327,0,0,1,.363-.119,1.157,1.157,0,0,1,.4,0,.536.536,0,0,1,.23.106.8.8,0,0,1,.174.192,1.1,1.1,0,0,1,.117.236,1.214,1.214,0,0,1,.059.238.645.645,0,0,1-.026.241.951.951,0,0,1-.1.231,1.269,1.269,0,0,1-.155.2,1.069,1.069,0,0,1-.181.155l-.148.1a1.445,1.445,0,0,0-.14.111.5.5,0,0,0-.085.1C164.134,190.256,164.141,190.274,164.172,190.285Zm-.585,1.238a.4.4,0,0,1,.143-.282.43.43,0,0,1,.262-.1.392.392,0,0,1,.257.091.351.351,0,0,1,.121.28.368.368,0,0,1-.047.207.39.39,0,0,1-.132.137.4.4,0,0,1-.181.057.391.391,0,0,1-.189-.031.379.379,0,0,1-.153-.127A.477.477,0,0,1,163.586,191.523Z" transform="translate(-132.005 -185.679)" fill="#232428"/>
        <g id="Group_215869" data-name="Group 215869" transform="translate(12.56)">
          <rect id="Rectangle_163409" data-name="Rectangle 163409" width="7.978" height="48.368" transform="translate(1.628 2.058)" fill="#f6f6f6"/>
          <rect id="Rectangle_163410" data-name="Rectangle 163410" width="1.602" height="48.368" transform="translate(1.628 2.058)" fill="#bcbcbc" opacity="0.5" style="mix-blend-mode: multiply;isolation: isolate"/>
          <g id="Group_215867" data-name="Group 215867">
            <g id="Group_215865" data-name="Group 215865">
              <rect id="Rectangle_163411" data-name="Rectangle 163411" width="1.935" height="52.236" fill="#65b0ec"/>
            </g>
            <g id="Group_215866" data-name="Group 215866" transform="translate(9.299)">
              <rect id="Rectangle_163412" data-name="Rectangle 163412" width="1.935" height="52.236" fill="#65b0ec"/>
            </g>
          </g>
          <g id="Group_215868" data-name="Group 215868" transform="translate(2.788 3.859)">
            <line id="Line_525" data-name="Line 525" y1="45.109" transform="translate(5.658)" fill="none" stroke="#d9d9d9" stroke-miterlimit="10" stroke-width="1"/>
            <line id="Line_526" data-name="Line 526" y1="45.109" transform="translate(3.711)" fill="none" stroke="#d9d9d9" stroke-miterlimit="10" stroke-width="1"/>
            <line id="Line_527" data-name="Line 527" y1="45.109" fill="none" stroke="#d9d9d9" stroke-miterlimit="10" stroke-width="1"/>
            <line id="Line_528" data-name="Line 528" y1="45.109" transform="translate(1.765)" fill="none" stroke="#d9d9d9" stroke-miterlimit="10" stroke-width="1"/>
          </g>
        </g>
        <g id="Group_215871" data-name="Group 215871" transform="translate(3.435 6.818)">
          <rect id="Rectangle_163413" data-name="Rectangle 163413" width="9.131" height="52.236" fill="#dd6028"/>
          <g id="Group_215870" data-name="Group 215870" transform="translate(0 4.59)">
            <rect id="Rectangle_163414" data-name="Rectangle 163414" width="9.131" height="4.995" fill="#c94c1b"/>
            <rect id="Rectangle_163415" data-name="Rectangle 163415" width="9.131" height="4.995" transform="translate(0 38.061)" fill="#c94c1b"/>
          </g>
        </g>
        <g id="Group_215875" data-name="Group 215875" transform="translate(25.159 12.536)">
          <path id="Path_47342" data-name="Path 47342" d="M204.239,223.091H145.662a3.221,3.221,0,0,0-3.043,3.373v4.527a3.221,3.221,0,0,0,3.043,3.373h58.577Z" transform="translate(-142.619 -223.085)" fill="#9a0605"/>
          <path id="Path_47343" data-name="Path 47343" d="M187.882,250.766v-.091H145.436a3.062,3.062,0,0,1-2.817-2.1v.632a3.221,3.221,0,0,0,3.043,3.373h58.577v-1.815Z" transform="translate(-142.619 -241.302)" fill="#3e5f9a" opacity="0.22" style="mix-blend-mode: multiply;isolation: isolate"/>
          <g id="Group_215874" data-name="Group 215874" transform="translate(33.882)">
            <path id="Path_47344" data-name="Path 47344" d="M263.026,230.286v-3.094a2.921,2.921,0,0,1,2.841-2.994h29.139v-1.127H270.219v.014h-5.7a3.475,3.475,0,0,0-3.094,3.531v4.278a3.459,3.459,0,0,0,3.366,3.546h30.214V233.28H265.868A2.92,2.92,0,0,1,263.026,230.286Z" transform="translate(-261.427 -223.071)" fill="#680909"/>
            <g id="Group_215872" data-name="Group 215872" transform="translate(1.599 1.127)">
              <path id="Path_47345" data-name="Path 47345" d="M269.759,227.024a2.869,2.869,0,0,0-2.724,2.994v3.095a2.868,2.868,0,0,0,2.724,2.993H297.7v-9.081Z" transform="translate(-267.035 -227.024)" fill="#f6f6f6"/>
            </g>
            <g id="Group_215873" data-name="Group 215873" transform="translate(3.015 2.991)">
              <line id="Line_529" data-name="Line 529" x2="29.246" fill="none" stroke="#d9d9d9" stroke-miterlimit="10" stroke-width="1"/>
              <line id="Line_530" data-name="Line 530" x2="29.246" transform="translate(0 1.899)" fill="none" stroke="#d9d9d9" stroke-miterlimit="10" stroke-width="1"/>
              <line id="Line_531" data-name="Line 531" x2="29.246" transform="translate(0 5.519)" fill="none" stroke="#d9d9d9" stroke-miterlimit="10" stroke-width="1"/>
              <line id="Line_532" data-name="Line 532" x2="29.246" transform="translate(0 3.797)" fill="none" stroke="#d9d9d9" stroke-miterlimit="10" stroke-width="1"/>
            </g>
          </g>
          <path id="Path_47346" data-name="Path 47346" d="M267.657,231.03a2.868,2.868,0,0,1,2.724-2.994H297.7v-1.012H269.759a2.869,2.869,0,0,0-2.724,2.994v3.095a3.132,3.132,0,0,0,.824,2.143,3.239,3.239,0,0,1-.2-1.13Z" transform="translate(-231.554 -225.897)" fill="#bcbcbc" opacity="0.5" style="mix-blend-mode: multiply;isolation: isolate"/>
          <path id="Path_47347" data-name="Path 47347" d="M152.134,228.312c2.506-.074,5.013-.108,7.519-.137l7.519-.042,7.519.041,3.76.05,3.759.088-3.759.088-3.76.05-7.519.041-7.519-.042C157.147,228.42,154.64,228.386,152.134,228.312Z" transform="translate(-149.421 -226.689)" fill="#bf3232"/>
        </g>
        <g id="Group_215878" data-name="Group 215878" transform="translate(23.627 35.221)">
          <g id="Group_215876" data-name="Group 215876">
            <rect id="Rectangle_163416" data-name="Rectangle 163416" width="68.905" height="2.325" transform="translate(0 10.658)" fill="#dd6028"/>
            <rect id="Rectangle_163417" data-name="Rectangle 163417" width="68.905" height="2.215" fill="#dd6028"/>
            <rect id="Rectangle_163418" data-name="Rectangle 163418" width="64.371" height="8.443" transform="translate(2.525 2.215)" fill="#f6f6f6"/>
            <rect id="Rectangle_163419" data-name="Rectangle 163419" width="64.371" height="1.671" transform="translate(2.525 2.215)" fill="#bcbcbc" opacity="0.5" style="mix-blend-mode: multiply;isolation: isolate"/>
          </g>
          <g id="Group_215877" data-name="Group 215877" transform="translate(3.021 4.217)">
            <line id="Line_533" data-name="Line 533" x2="62.864" fill="none" stroke="#d9d9d9" stroke-miterlimit="10" stroke-width="1"/>
            <line id="Line_534" data-name="Line 534" x2="62.864" transform="translate(0 2.274)" fill="none" stroke="#d9d9d9" stroke-miterlimit="10" stroke-width="1"/>
            <line id="Line_535" data-name="Line 535" x2="62.864" transform="translate(0 4.549)" fill="none" stroke="#d9d9d9" stroke-miterlimit="10" stroke-width="1"/>
          </g>
        </g>
        <g id="Group_215886" data-name="Group 215886" transform="translate(48.017 48.19)">
          <path id="Path_47348" data-name="Path 47348" d="M281.747,348.115H225.684a3.083,3.083,0,0,0-2.913,3.229v4.332a3.083,3.083,0,0,0,2.913,3.228h56.063Z" transform="translate(-222.771 -348.11)" fill="#65aff2"/>
          <path id="Path_47349" data-name="Path 47349" d="M266.092,374.6v-.087H225.467a2.93,2.93,0,0,1-2.7-2.009v.605a3.083,3.083,0,0,0,2.913,3.228h56.063V374.6Z" transform="translate(-222.771 -365.545)" fill="#3e5f9a" opacity="0.22" style="mix-blend-mode: multiply;isolation: isolate"/>
          <g id="Group_215881" data-name="Group 215881" transform="translate(32.428)">
            <path id="Path_47350" data-name="Path 47350" d="M338.011,355V352.04a2.8,2.8,0,0,1,2.72-2.865h27.889V348.1H344.9v.014h-5.454a3.326,3.326,0,0,0-2.962,3.38v4.095a3.311,3.311,0,0,0,3.221,3.394h28.918v-1.111H340.73A2.8,2.8,0,0,1,338.011,355Z" transform="translate(-336.48 -348.096)" fill="#3686c1"/>
            <g id="Group_215879" data-name="Group 215879" transform="translate(1.531 1.079)">
              <path id="Path_47351" data-name="Path 47351" d="M344.455,351.88a2.745,2.745,0,0,0-2.607,2.865v2.962a2.745,2.745,0,0,0,2.607,2.865h26.738V351.88Z" transform="translate(-341.848 -351.88)" fill="#f6f6f6"/>
            </g>
            <g id="Group_215880" data-name="Group 215880" transform="translate(2.886 2.863)">
              <line id="Line_536" data-name="Line 536" x2="27.991" fill="none" stroke="#d9d9d9" stroke-miterlimit="10" stroke-width="1"/>
              <line id="Line_537" data-name="Line 537" x2="27.991" transform="translate(0 1.817)" fill="none" stroke="#d9d9d9" stroke-miterlimit="10" stroke-width="1"/>
              <line id="Line_538" data-name="Line 538" x2="27.991" transform="translate(0 5.282)" fill="none" stroke="#d9d9d9" stroke-miterlimit="10" stroke-width="1"/>
              <line id="Line_539" data-name="Line 539" x2="27.991" transform="translate(0 3.634)" fill="none" stroke="#d9d9d9" stroke-miterlimit="10" stroke-width="1"/>
            </g>
          </g>
          <path id="Path_47352" data-name="Path 47352" d="M342.443,355.714a2.745,2.745,0,0,1,2.607-2.865h26.143v-.969H344.455a2.745,2.745,0,0,0-2.607,2.865v2.962a3,3,0,0,0,.789,2.051,3.1,3.1,0,0,1-.194-1.082Z" transform="translate(-307.89 -350.801)" fill="#bcbcbc" opacity="0.5" style="mix-blend-mode: multiply;isolation: isolate"/>
          <g id="Group_215885" data-name="Group 215885" transform="translate(3.113 4.205)">
            <g id="Group_215882" data-name="Group 215882" transform="translate(0.143 0.143)" opacity="0.08" style="mix-blend-mode: multiply;isolation: isolate">
              <path id="Path_47353" data-name="Path 47353" d="M236.04,366v-1.36l-.411.956h-.359l-.411-.956V366h-.673v-2.581h.735l.528,1.215.532-1.215h.732V366Z" transform="translate(-234.187 -363.394)"/>
              <path id="Path_47354" data-name="Path 47354" d="M245.459,363.416h.614l.849,2.581h-.683l-.149-.506h-.652l-.145.506h-.687Zm.524,1.6-.217-.8-.228.8Z" transform="translate(-241.635 -363.394)"/>
              <path id="Path_47355" data-name="Path 47355" d="M254.968,364.034h-.7V366h-.673v-1.963h-.708v-.618h2.084Z" transform="translate(-247.552 -363.394)"/>
              <path id="Path_47356" data-name="Path 47356" d="M264.067,363.416V366h-.673v-1.011h-.821V366H261.9v-2.581h.673v.953h.821v-.953Z" transform="translate(-253.997 -363.394)"/>
              <path id="Path_47357" data-name="Path 47357" d="M273.569,365.379V366h-1.746v-2.581h1.715v.618H272.5v.364h.89v.574h-.89v.408Z" transform="translate(-261.09 -363.394)"/>
              <path id="Path_47358" data-name="Path 47358" d="M281.748,366v-1.36l-.411.956h-.359l-.411-.956V366H279.9v-2.581h.735l.528,1.215.531-1.215h.732V366Z" transform="translate(-266.86 -363.394)"/>
              <path id="Path_47359" data-name="Path 47359" d="M291.166,363.416h.614L292.63,366h-.683l-.149-.506h-.652L291,366h-.687Zm.525,1.6-.218-.8-.228.8Z" transform="translate(-274.308 -363.394)"/>
              <path id="Path_47360" data-name="Path 47360" d="M300.676,364.034h-.7V366H299.3v-1.963h-.707v-.618h2.084Z" transform="translate(-280.225 -363.394)"/>
              <path id="Path_47361" data-name="Path 47361" d="M307.607,366v-2.581h.673V366Z" transform="translate(-286.669 -363.394)"/>
              <path id="Path_47362" data-name="Path 47362" d="M311.819,364.649a1.335,1.335,0,0,1,.084-.466,1.278,1.278,0,0,1,.247-.411,1.258,1.258,0,0,1,.394-.294,1.3,1.3,0,0,1,1.144.042.985.985,0,0,1,.388.409l-.514.385a.46.46,0,0,0-.092-.156.475.475,0,0,0-.126-.1.528.528,0,0,0-.143-.051.74.74,0,0,0-.143-.015.5.5,0,0,0-.25.06.521.521,0,0,0-.173.156.7.7,0,0,0-.1.218.937.937,0,0,0-.032.242.872.872,0,0,0,.038.258.683.683,0,0,0,.11.218.542.542,0,0,0,.178.151.493.493,0,0,0,.236.056.644.644,0,0,0,.142-.016.508.508,0,0,0,.139-.054.473.473,0,0,0,.121-.1.442.442,0,0,0,.084-.147l.548.345a.732.732,0,0,1-.167.254,1.062,1.062,0,0,1-.256.189,1.308,1.308,0,0,1-.307.117,1.365,1.365,0,0,1-.319.04,1.085,1.085,0,0,1-.5-.114,1.268,1.268,0,0,1-.39-.3,1.419,1.419,0,0,1-.343-.916Z" transform="translate(-289.68 -363.358)"/>
              <path id="Path_47363" data-name="Path 47363" d="M322.568,364.205a1.892,1.892,0,0,0-.214-.116,2.037,2.037,0,0,0-.209-.082.722.722,0,0,0-.226-.038.3.3,0,0,0-.143.029.1.1,0,0,0-.053.1.116.116,0,0,0,.031.084.289.289,0,0,0,.09.06,1.079,1.079,0,0,0,.143.053c.056.017.12.037.192.062a2.407,2.407,0,0,1,.305.12.942.942,0,0,1,.233.154.6.6,0,0,1,.149.216.82.82,0,0,1,.052.309.849.849,0,0,1-.081.391.693.693,0,0,1-.214.253.883.883,0,0,1-.3.136,1.379,1.379,0,0,1-.337.042,1.851,1.851,0,0,1-.276-.022,2.314,2.314,0,0,1-.281-.062,2.48,2.48,0,0,1-.269-.094,1.694,1.694,0,0,1-.24-.124l.29-.622a1.975,1.975,0,0,0,.252.142,1.775,1.775,0,0,0,.25.1.952.952,0,0,0,.285.044.278.278,0,0,0,.153-.031.1.1,0,0,0,.043-.082.12.12,0,0,0-.043-.093.392.392,0,0,0-.119-.067c-.05-.019-.109-.039-.174-.058s-.135-.042-.209-.069a1.752,1.752,0,0,1-.279-.125.772.772,0,0,1-.193-.153.548.548,0,0,1-.112-.194.791.791,0,0,1-.036-.251.909.909,0,0,1,.074-.378.77.77,0,0,1,.2-.273.883.883,0,0,1,.291-.165,1.048,1.048,0,0,1,.347-.057,1.227,1.227,0,0,1,.262.027,1.951,1.951,0,0,1,.247.069,2.23,2.23,0,0,1,.222.091c.069.033.131.064.186.092Z" transform="translate(-296.184 -363.34)"/>
            </g>
            <g id="Group_215884" data-name="Group 215884">
              <g id="Group_215883" data-name="Group 215883">
                <path id="Path_47364" data-name="Path 47364" d="M235.54,365.5v-1.36l-.411.956h-.359l-.411-.956v1.36h-.673v-2.581h.735l.528,1.215.532-1.215h.732V365.5Z" transform="translate(-233.687 -362.894)" fill="#3686c1"/>
                <path id="Path_47365" data-name="Path 47365" d="M244.959,362.916h.614l.849,2.581h-.683l-.149-.506h-.652l-.145.506h-.687Zm.524,1.6-.217-.8-.228.8Z" transform="translate(-241.135 -362.894)" fill="#3686c1"/>
                <path id="Path_47366" data-name="Path 47366" d="M254.468,363.534h-.7V365.5h-.673v-1.963h-.708v-.618h2.084Z" transform="translate(-247.052 -362.894)" fill="#3686c1"/>
                <path id="Path_47367" data-name="Path 47367" d="M263.567,362.916V365.5h-.673v-1.011h-.821V365.5H261.4v-2.581h.673v.953h.821v-.953Z" transform="translate(-253.497 -362.894)" fill="#3686c1"/>
                <path id="Path_47368" data-name="Path 47368" d="M273.069,364.879v.618h-1.746v-2.581h1.715v.618H272v.364h.89v.574H272v.408Z" transform="translate(-260.59 -362.894)" fill="#3686c1"/>
                <path id="Path_47369" data-name="Path 47369" d="M281.248,365.5v-1.36l-.411.956h-.359l-.411-.956v1.36H279.4v-2.581h.735l.528,1.215.531-1.215h.732V365.5Z" transform="translate(-266.36 -362.894)" fill="#3686c1"/>
                <path id="Path_47370" data-name="Path 47370" d="M290.666,362.916h.614l.849,2.581h-.683l-.149-.506h-.652l-.145.506h-.687Zm.525,1.6-.218-.8-.228.8Z" transform="translate(-273.808 -362.894)" fill="#3686c1"/>
                <path id="Path_47371" data-name="Path 47371" d="M300.176,363.534h-.7V365.5H298.8v-1.963h-.707v-.618h2.084Z" transform="translate(-279.725 -362.894)" fill="#3686c1"/>
                <path id="Path_47372" data-name="Path 47372" d="M307.107,365.5v-2.581h.673V365.5Z" transform="translate(-286.169 -362.894)" fill="#3686c1"/>
                <path id="Path_47373" data-name="Path 47373" d="M311.319,364.149a1.335,1.335,0,0,1,.084-.466,1.277,1.277,0,0,1,.247-.411,1.257,1.257,0,0,1,.394-.294,1.3,1.3,0,0,1,1.144.042.985.985,0,0,1,.388.409l-.514.385a.459.459,0,0,0-.091-.156.475.475,0,0,0-.126-.1.535.535,0,0,0-.143-.051.747.747,0,0,0-.143-.015.5.5,0,0,0-.25.06.521.521,0,0,0-.173.157.694.694,0,0,0-.1.218.936.936,0,0,0-.033.242.873.873,0,0,0,.038.258.683.683,0,0,0,.11.218.541.541,0,0,0,.178.151.493.493,0,0,0,.236.056.643.643,0,0,0,.142-.016.506.506,0,0,0,.139-.055.473.473,0,0,0,.121-.1.444.444,0,0,0,.084-.147l.548.345a.731.731,0,0,1-.167.254,1.059,1.059,0,0,1-.255.189,1.311,1.311,0,0,1-.307.117,1.372,1.372,0,0,1-.319.04,1.086,1.086,0,0,1-.5-.114,1.268,1.268,0,0,1-.39-.3,1.419,1.419,0,0,1-.343-.916Z" transform="translate(-289.18 -362.858)" fill="#3686c1"/>
                <path id="Path_47374" data-name="Path 47374" d="M322.068,363.705a1.9,1.9,0,0,0-.214-.116,2.054,2.054,0,0,0-.209-.082.722.722,0,0,0-.226-.038.3.3,0,0,0-.143.029.1.1,0,0,0-.053.1.115.115,0,0,0,.031.084.288.288,0,0,0,.09.06,1.09,1.09,0,0,0,.143.053c.056.017.12.037.192.062a2.4,2.4,0,0,1,.305.12.944.944,0,0,1,.233.154.6.6,0,0,1,.149.216.82.82,0,0,1,.052.309.848.848,0,0,1-.081.391.691.691,0,0,1-.214.253.882.882,0,0,1-.3.136,1.378,1.378,0,0,1-.336.042,1.849,1.849,0,0,1-.276-.022,2.316,2.316,0,0,1-.281-.062,2.483,2.483,0,0,1-.269-.094,1.693,1.693,0,0,1-.24-.124l.29-.622a1.973,1.973,0,0,0,.252.142,1.76,1.76,0,0,0,.25.1.951.951,0,0,0,.285.044.278.278,0,0,0,.153-.031.1.1,0,0,0,.043-.082.12.12,0,0,0-.043-.093.394.394,0,0,0-.119-.067c-.051-.019-.109-.039-.174-.058s-.135-.042-.209-.069a1.749,1.749,0,0,1-.28-.125.769.769,0,0,1-.193-.153.548.548,0,0,1-.112-.194.791.791,0,0,1-.036-.251.91.91,0,0,1,.074-.378.771.771,0,0,1,.2-.273.883.883,0,0,1,.291-.165,1.05,1.05,0,0,1,.347-.056,1.228,1.228,0,0,1,.262.027,1.96,1.96,0,0,1,.247.069,2.255,2.255,0,0,1,.222.091c.069.033.131.064.186.092Z" transform="translate(-295.684 -362.84)" fill="#3686c1"/>
              </g>
            </g>
          </g>
          <path id="Path_47375" data-name="Path 47375" d="M231.878,353.165c2.4-.062,4.8-.091,7.2-.115l7.2-.035,7.2.034,3.6.042,3.6.074-3.6.074-3.6.042-7.2.034-7.2-.035C236.675,353.256,234.277,353.227,231.878,353.165Z" transform="translate(-229.281 -351.612)" fill="#8fcfff"/>
        </g>
        <g id="Group_215887" data-name="Group 215887" transform="translate(92.658 15.223)">
          <path id="Path_47376" data-name="Path 47376" d="M398.5,323.932H388.167l-.863-9.544h12.055Z" transform="translate(-385.023 -291.034)" fill="#dd6028"/>
          <path id="Path_47377" data-name="Path 47377" d="M387.3,314.389l.1,1.093H399.26l.1-1.093Z" transform="translate(-385.023 -291.034)" fill="#bf4737" opacity="0.14" style="mix-blend-mode: multiply;isolation: isolate"/>
          <path id="Path_47378" data-name="Path 47378" d="M385.854,267.7a1.473,1.473,0,0,1-1.186-.311c-1.492-1.152-7.5-6.2-4.565-8.8C383.452,255.622,389.157,267.014,385.854,267.7Z" transform="translate(-379.308 -250.795)" fill="#36894d"/>
          <path id="Path_47379" data-name="Path 47379" d="M403.978,243.254s-2.2-9.424,2.1-10.668,1.516,10.73.033,11.943S403.978,243.254,403.978,243.254Z" transform="translate(-396.54 -232.496)" fill="#36894d"/>
          <path id="Path_47380" data-name="Path 47380" d="M409.385,268.444s2.444-10.389,6.343-9.576-4.8,12.727-6.264,10.853C409.232,269.425,409.385,268.444,409.385,268.444Z" transform="translate(-400.772 -251.315)" fill="#36894d"/>
          <path id="Path_47381" data-name="Path 47381" d="M385.878,265.491a12.883,12.883,0,0,1,2.908,2.8,15.932,15.932,0,0,1,2.056,3.495c.141.309.241.634.364.95l.176.478.137.491.268.984.186,1,.093.5.052.507.1,1.016c.043.679.026,1.36.041,2.041l-.419-.018c0-.667.036-1.336.011-2l-.072-1-.038-.5-.079-.5-.158-.991-.239-.974-.122-.487-.161-.475c-.113-.315-.2-.639-.335-.947a15.765,15.765,0,0,0-1.945-3.512A12.836,12.836,0,0,0,385.878,265.491Z" transform="translate(-384.004 -256.081)" fill="#424242"/>
          <path id="Path_47382" data-name="Path 47382" d="M408.553,236.135q-.589,4.918-1.07,9.847c-.154,1.643-.3,3.287-.42,4.932a44.192,44.192,0,0,0-.147,4.918h0l-.413-.036a34,34,0,0,1,1.118-3.277q.637-1.607,1.423-3.147a27.906,27.906,0,0,1,1.779-2.956,18.174,18.174,0,0,1,2.249-2.6,18.15,18.15,0,0,0-2.163,2.664,27.678,27.678,0,0,0-1.678,2.99q-.734,1.55-1.316,3.164a33.8,33.8,0,0,0-1.006,3.267l-.413,1.667v-1.7h0a44.136,44.136,0,0,1,.251-4.973c.15-1.646.335-3.288.525-4.928Q407.856,241.039,408.553,236.135Z" transform="translate(-398.738 -235.097)" fill="#424242"/>
          <rect id="Rectangle_163420" data-name="Rectangle 163420" width="14.16" height="2.105" transform="translate(1.228 21.752)" fill="#c94c1b"/>
        </g>
        <g id="Group_215893" data-name="Group 215893" transform="translate(12.849 23.933)">
          <g id="Group_215891" data-name="Group 215891">
            <path id="Path_47383" data-name="Path 47383" d="M119.938,263.057h58.577a3.221,3.221,0,0,1,3.043,3.373v4.527a3.221,3.221,0,0,1-3.043,3.373H119.938Z" transform="translate(-114.096 -263.051)" fill="#ce295d"/>
            <path id="Path_47384" data-name="Path 47384" d="M136.295,290.732v-.091h42.447a3.061,3.061,0,0,0,2.817-2.1v.632a3.221,3.221,0,0,1-3.043,3.373H119.938v-1.815Z" transform="translate(-114.096 -281.268)" fill="#3e5f9a" opacity="0.22" style="mix-blend-mode: multiply;isolation: isolate"/>
            <g id="Group_215890" data-name="Group 215890">
              <path id="Path_47385" data-name="Path 47385" d="M131.434,270.252v-3.095a2.921,2.921,0,0,0-2.841-2.994H99.454v-1.127h24.787v.014h5.7a3.475,3.475,0,0,1,3.094,3.531v4.278a3.459,3.459,0,0,1-3.366,3.546H99.454v-1.161h29.139A2.92,2.92,0,0,0,131.434,270.252Z" transform="translate(-99.454 -263.037)" fill="#ba174a"/>
              <g id="Group_215888" data-name="Group 215888" transform="translate(1.319 1.127)">
                <path id="Path_47386" data-name="Path 47386" d="M132.016,266.99a2.868,2.868,0,0,1,2.724,2.993v3.095a2.868,2.868,0,0,1-2.724,2.993H104.079V266.99Z" transform="translate(-104.079 -266.99)" fill="#f6f6f6"/>
              </g>
              <g id="Group_215889" data-name="Group 215889" transform="translate(1.319 2.991)">
                <line id="Line_540" data-name="Line 540" x1="29.246" fill="none" stroke="#d9d9d9" stroke-miterlimit="10" stroke-width="1"/>
                <line id="Line_541" data-name="Line 541" x1="29.246" transform="translate(0 1.899)" fill="none" stroke="#d9d9d9" stroke-miterlimit="10" stroke-width="1"/>
                <line id="Line_542" data-name="Line 542" x1="29.246" transform="translate(0 5.519)" fill="none" stroke="#d9d9d9" stroke-miterlimit="10" stroke-width="1"/>
                <line id="Line_543" data-name="Line 543" x1="29.246" transform="translate(0 3.797)" fill="none" stroke="#d9d9d9" stroke-miterlimit="10" stroke-width="1"/>
              </g>
            </g>
            <path id="Path_47387" data-name="Path 47387" d="M134.119,271A2.868,2.868,0,0,0,131.394,268H104.079V266.99h27.937a2.868,2.868,0,0,1,2.724,2.993v3.095a3.132,3.132,0,0,1-.824,2.143,3.241,3.241,0,0,0,.2-1.131Z" transform="translate(-102.76 -265.863)" fill="#bcbcbc" opacity="0.5" style="mix-blend-mode: multiply;isolation: isolate"/>
            <path id="Path_47388" data-name="Path 47388" d="M251.111,268.278c-2.506-.074-5.013-.108-7.519-.137l-7.519-.042-7.519.041-3.759.05-3.76.088,3.76.088,3.759.05,7.519.041,7.519-.042C246.1,268.386,248.6,268.352,251.111,268.278Z" transform="translate(-186.363 -266.655)" fill="#fc5692"/>
          </g>
          <g id="Group_215892" data-name="Group 215892" transform="translate(44.205 3.151)" opacity="0.99">
            <path id="Path_47389" data-name="Path 47389" d="M256.15,274.352v3.8h-1.02v-2.969h-.67v-.83Z" transform="translate(-254.46 -274.276)" fill="#fc5692"/>
            <path id="Path_47390" data-name="Path 47390" d="M272.446,277.109v.852h-2.808v-.673l1.35-1.33c.288-.282.33-.456.33-.613,0-.244-.155-.391-.464-.391a.728.728,0,0,0-.644.369l-.757-.445a1.631,1.631,0,0,1,1.494-.792c.83,0,1.4.45,1.4,1.156a1.546,1.546,0,0,1-.613,1.2l-.68.662Z" transform="translate(-265.177 -274.086)" fill="#fc5692"/>
            <path id="Path_47391" data-name="Path 47391" d="M291.176,276.962c0,.646-.484,1.265-1.571,1.265a2.652,2.652,0,0,1-1.4-.374l.371-.809a1.764,1.764,0,0,0,1,.315c.345,0,.572-.141.572-.4,0-.228-.159-.369-.551-.369h-.427v-.678l.644-.733h-1.422v-.83H291v.673l-.747.847A1.075,1.075,0,0,1,291.176,276.962Z" transform="translate(-278.58 -274.276)" fill="#fc5692"/>
          </g>
        </g>
        <g id="Group_215895" data-name="Group 215895" transform="translate(3.382 48.206)">
          <path id="Path_47392" data-name="Path 47392" d="M66.256,348.15V349.9h36.473v7.352H66.256V359h39.366a5.274,5.274,0,0,0,5.108-5.424h0a5.273,5.273,0,0,0-5.108-5.424Z" transform="translate(-66.256 -348.15)" fill="#9a0404"/>
          <path id="Path_47393" data-name="Path 47393" d="M108.68,361.636H70.7v-7.394H108.68a3.594,3.594,0,0,1,3.482,3.7h0A3.594,3.594,0,0,1,108.68,361.636Z" transform="translate(-69.433 -352.505)" fill="#f6f6f6"/>
          <g id="Group_215894" data-name="Group 215894" transform="translate(2.38 2.986)">
            <line id="Line_544" data-name="Line 544" x1="37.937" fill="none" stroke="#d9d9d9" stroke-miterlimit="10" stroke-width="1"/>
            <line id="Line_545" data-name="Line 545" x1="37.937" transform="translate(0 1.757)" fill="none" stroke="#d9d9d9" stroke-miterlimit="10" stroke-width="1"/>
            <line id="Line_546" data-name="Line 546" x1="37.937" transform="translate(0 5.108)" fill="none" stroke="#d9d9d9" stroke-miterlimit="10" stroke-width="1"/>
            <line id="Line_547" data-name="Line 547" x1="37.937" transform="translate(0 3.515)" fill="none" stroke="#d9d9d9" stroke-miterlimit="10" stroke-width="1"/>
          </g>
          <path id="Path_47394" data-name="Path 47394" d="M112.162,357.938a3.6,3.6,0,0,0-3.482-3.7H70.7v.669h37.265a3.594,3.594,0,0,1,3.482,3.7h0a3.814,3.814,0,0,1-.849,2.415A3.755,3.755,0,0,0,112.162,357.938Z" transform="translate(-69.433 -352.504)" fill="#bcbcbc" opacity="0.5" style="mix-blend-mode: multiply;isolation: isolate"/>
        </g>
        <g id="Group_215896" data-name="Group 215896" transform="translate(34.885 7.573)">
          <path id="Rectangle_163421" data-name="Rectangle 163421" d="M0,0H4.923a0,0,0,0,1,0,0V8.345a2.462,2.462,0,0,1-2.462,2.462h0A2.462,2.462,0,0,1,0,8.345V0A0,0,0,0,1,0,0Z" transform="translate(10.806 0.053) rotate(89.864)" fill="#ce295d"/>
          <rect id="Rectangle_163422" data-name="Rectangle 163422" width="4.923" height="27.069" transform="matrix(0.002, 1, -1, 0.002, 30.136, 0.004)" fill="#dd6028"/>
          <rect id="Rectangle_163423" data-name="Rectangle 163423" width="1.236" height="27.069" transform="matrix(0.002, 1, -1, 0.002, 30.136, 0.004)" fill="#c94c1b"/>
          <rect id="Rectangle_163424" data-name="Rectangle 163424" width="1.236" height="27.069" transform="matrix(0.002, 1, -1, 0.002, 30.144, 3.69)" fill="#c94c1b"/>
          <rect id="Rectangle_163425" data-name="Rectangle 163425" width="4.923" height="4.673" transform="matrix(0.002, 1, -1, 0.002, 7.74, 0.06)" fill="#e3e4e5"/>
          <rect id="Rectangle_163426" data-name="Rectangle 163426" width="4.923" height="1.353" transform="translate(7.74 0.059) rotate(89.863)" fill="#e3e4e5" style="mix-blend-mode: multiply;isolation: isolate"/>
          <path id="Path_47395" data-name="Path 47395" d="M282.4,205.669l4.48,2.45-4.469,2.473Z" transform="translate(-252.26 -205.669)" fill="#f0c2bf"/>
          <path id="Path_47396" data-name="Path 47396" d="M294.88,212.5l-1.287-.7,0,1.414Z" transform="translate(-260.264 -210.046)" fill="#222"/>
        </g>
        <g id="Group_215898" data-name="Group 215898" transform="translate(0 35.833)">
          <g id="Group_215897" data-name="Group 215897">
            <path id="Path_47397" data-name="Path 47397" d="M55.073,322.4a.417.417,0,0,1-.19.063.387.387,0,0,1-.188-.026.265.265,0,0,1-.129-.113.249.249,0,0,1-.012-.2.473.473,0,0,1,.074-.151,1.663,1.663,0,0,1,.116-.147c.041-.047.083-.09.125-.131a1,1,0,0,0,.1-.106.755.755,0,0,0-.116-.115c-.056-.048-.116-.1-.178-.155a1.922,1.922,0,0,1-.171-.174.4.4,0,0,1-.1-.171.285.285,0,0,1,.073-.28.313.313,0,0,1,.124-.075.308.308,0,0,1,.157-.009.365.365,0,0,1,.072.014.15.15,0,0,1,.062.032q.132.116.255.235t.248.235q.1-.11.2-.221t.207-.218a.154.154,0,0,1,.059-.037.354.354,0,0,1,.071-.019.318.318,0,0,1,.284.064.287.287,0,0,1,.094.275.4.4,0,0,1-.071.167,1.419,1.419,0,0,1-.132.164c-.048.052-.1.1-.143.146s-.084.082-.11.11a.875.875,0,0,0,.1.1c.054.046.113.1.178.159s.127.124.186.191a.734.734,0,0,1,.129.2.23.23,0,0,1,0,.2.3.3,0,0,1-.136.131.393.393,0,0,1-.2.036.3.3,0,0,1-.19-.081l-.5-.467Z" transform="translate(-54.397 -316.092)" fill="#232428"/>
            <path id="Path_47398" data-name="Path 47398" d="M62.09,316.007a.4.4,0,0,1-.2.069.335.335,0,0,1-.186-.036.271.271,0,0,1-.12-.129.316.316,0,0,1-.007-.212.427.427,0,0,1,.114-.194l.159-.167q.37-.413.763-.818a.153.153,0,0,1,.059-.037.363.363,0,0,1,.071-.019.311.311,0,0,1,.159,0,.327.327,0,0,1,.129.067.277.277,0,0,1,.079.116.294.294,0,0,1,.011.155.512.512,0,0,1-.094.2,2.089,2.089,0,0,1-.164.2q-.088.094-.168.169c-.053.049-.089.084-.108.1Z" transform="translate(-59.519 -311.69)" fill="#232428"/>
            <path id="Path_47399" data-name="Path 47399" d="M65.786,305.082a.4.4,0,0,1,.092-.2.348.348,0,0,1,.159-.106.259.259,0,0,1,.18.012.346.346,0,0,1,.157.158.514.514,0,0,1,.044.233c0,.088,0,.166,0,.234q.009.165.019.322c.006.1.014.211.022.318q.246.01.491.033t.488.066l.184.03a.383.383,0,0,1,.168.071.265.265,0,0,1,.114.17.363.363,0,0,1-.015.2.326.326,0,0,1-.119.154.269.269,0,0,1-.2.042l-.517-.076q-.256-.037-.517-.053c.016.124.037.247.06.368s.05.242.079.364c.011.044.024.086.037.127a.43.43,0,0,1-.044.352.346.346,0,0,1-.164.13.281.281,0,0,1-.194,0,.29.29,0,0,1-.157-.154,1.49,1.49,0,0,1-.1-.273q-.04-.158-.07-.324c-.02-.111-.037-.22-.052-.328s-.027-.2-.037-.283h-.379l-.141,0c-.044,0-.091.005-.141.01a1.211,1.211,0,0,1-.151.007,1.283,1.283,0,0,1-.153-.011.467.467,0,0,1-.139-.041.269.269,0,0,1-.123-.122.327.327,0,0,1-.033-.162.319.319,0,0,1,.053-.159.27.27,0,0,1,.135-.107.805.805,0,0,1,.086-.023.546.546,0,0,1,.086-.009,1.266,1.266,0,0,0,.143,0l.21-.013c.077,0,.157-.007.242-.008s.163,0,.236,0q-.023-.226-.031-.453t-.012-.458Z" transform="translate(-61.715 -304.764)" fill="#232428"/>
          </g>
        </g>
      </g>
      <g id="Group_215903" data-name="Group 215903" transform="translate(23.131 18.408)">
        <path id="Path_47400" data-name="Path 47400" d="M161.6,249.645l-.475-.157-11.847,31.507.461.2A16.864,16.864,0,1,0,161.6,249.645Zm-5.3,31.827a15.729,15.729,0,0,1-5.693-1.055L161.747,250.8a15.82,15.82,0,0,1-5.444,30.673Z" transform="translate(-138.474 -247.826)" fill="#adadad"/>
        <circle id="Ellipse_959" data-name="Ellipse 959" cx="14.772" cy="14.772" r="14.772" transform="matrix(0.235, -0.972, 0.972, 0.235, 0, 28.716)" fill="#65aff2"/>
        <g id="Group_215900" data-name="Group 215900" transform="translate(17.308 34.077)">
          <rect id="Rectangle_163427" data-name="Rectangle 163427" width="1.042" height="1.86" fill="#adadad"/>
        </g>
        <path id="Path_47401" data-name="Path 47401" d="M152.229,374.177h12.364a6.387,6.387,0,0,0-6.264-4.787A5.756,5.756,0,0,0,152.229,374.177Z" transform="translate(-140.583 -333.535)" fill="#adadad"/>
        <g id="Group_215902" data-name="Group 215902" transform="translate(3.783 3.276)">
          <g id="Group_215901" data-name="Group 215901">
            <path id="Path_47402" data-name="Path 47402" d="M151.242,264.217c-.063-.075-.107-.109-.1-.125a.677.677,0,0,1,.084-.131c.035.031.1.066.1.093A.512.512,0,0,1,151.242,264.217Z" transform="translate(-143.587 -261.448)" fill="#36894d"/>
            <path id="Path_47403" data-name="Path 47403" d="M151.617,278.117a.218.218,0,0,0-.08.052.074.074,0,1,0,.069.037A.152.152,0,0,0,151.617,278.117Z" transform="translate(-143.834 -271.567)" fill="#36894d"/>
            <path id="Path_47404" data-name="Path 47404" d="M159.847,272.795a1.14,1.14,0,0,0,.217-.112,1.793,1.793,0,0,0-.242,0c-.044,0-.085.045-.127.069C159.746,272.767,159.805,272.808,159.847,272.795Z" transform="translate(-149.702 -267.679)" fill="#36894d"/>
            <path id="Path_47405" data-name="Path 47405" d="M163.8,319.272a.258.258,0,0,0,.031.095l.06-.057-.034-.1C163.833,319.233,163.8,319.251,163.8,319.272Z" transform="translate(-152.634 -300.944)" fill="#36894d"/>
            <path id="Path_47406" data-name="Path 47406" d="M178.351,260.22c.033.026.064.068.1.075a.494.494,0,0,0,.142,0,.744.744,0,0,0-.139-.1C178.432,260.174,178.386,260.207,178.351,260.22Z" transform="translate(-163.038 -258.748)" fill="#36894d"/>
            <path id="Path_47407" data-name="Path 47407" d="M200.052,270.461c-.034.255.171.323.339.419,0,0,.036-.033.032-.042C200.348,270.664,200.316,270.443,200.052,270.461Z" transform="translate(-178.547 -266.094)" fill="#36894d"/>
            <path id="Path_47408" data-name="Path 47408" d="M223.023,296.6a.661.661,0,0,0-.03.108c0,.014.02.031.031.047.017-.028.045-.054.048-.083S223.041,296.629,223.023,296.6Z" transform="translate(-194.949 -284.781)" fill="#36894d"/>
            <path id="Path_47409" data-name="Path 47409" d="M201.412,264.555c-.09-.115-.178-.232-.273-.342-.015-.018-.076-.013-.1,0a.091.091,0,0,0-.023.086C201.118,264.429,201.212,264.582,201.412,264.555Z" transform="translate(-179.233 -261.62)" fill="#36894d"/>
            <path id="Path_47410" data-name="Path 47410" d="M200.272,266.49a.679.679,0,0,1,.057-.157c.1-.156-.023-.21-.119-.264-.178-.1-.179-.092-.049-.265.029-.038.067-.1.052-.132-.025-.044-.1-.1-.133-.092-.15.054-.288.117-.437-.008a1.768,1.768,0,0,1-.708-.828c-.037-.13-.188-.229-.294-.336-.014-.014-.078,0-.1.019a.1.1,0,0,0-.015.1c.279.38.35.885.827,1.16.208.12.312.484.378.757.023.1-.181.25-.293.38.041.343.233-.047.334.07.163.188.293-.007.447-.034C200.708,266.772,200.232,266.6,200.272,266.49Z" transform="translate(-177.455 -261.763)" fill="#36894d"/>
            <path id="Path_47411" data-name="Path 47411" d="M192.348,269.768c.075.133,0,.338.268.4.2.043.355.255.524.4.032.028.057.126.044.136-.345.263-.109.363.123.471.016.007.024.078.008.1-.074.117-.053.182.09.155a2.049,2.049,0,0,0,.311-.11c.157.1.285.095.328-.076s.078-.352-.187-.4c-.083-.016-.155-.1-.226-.163a7.664,7.664,0,0,1-1-1.031.8.8,0,0,0-.2-.132C192.4,269.6,192.319,269.716,192.348,269.768Z" transform="translate(-173.039 -265.417)" fill="#36894d"/>
            <path id="Path_47412" data-name="Path 47412" d="M191.486,272.469c.206.129-.025.449.232.5a.359.359,0,0,0,.426-.284c0-.273-.164-.527-.341-.536C191.68,272.147,191.425,272.431,191.486,272.469Z" transform="translate(-172.421 -267.303)" fill="#36894d"/>
            <path id="Path_47413" data-name="Path 47413" d="M191.434,269.727c0,.013.017.027.027.041.012-.012.033-.023.034-.036s-.017-.027-.028-.042C191.455,269.7,191.435,269.714,191.434,269.727Z" transform="translate(-172.39 -265.543)" fill="#36894d"/>
            <path id="Path_47414" data-name="Path 47414" d="M139.826,277.413a.36.36,0,0,0-.34-.344c-.131-.013-.345-.019-.375-.09-.136-.323-.4-.249-.64-.262a1.559,1.559,0,0,0-.546-.034c-.351.127-.141-.331-.381-.32a.994.994,0,0,1-.443-.121c-.162-.078-.231-.035-.281.123-.013.04-.087.06-.133.09a.857.857,0,0,1-.021-.159c0-.081.06-.2.025-.236a1.957,1.957,0,0,1-.55-.829.607.607,0,0,0-.206-.266,1.449,1.449,0,0,0-1.018-.36.706.706,0,0,1-.481-.154c-.214-.176-.348-.481-.582-.594-.264-.128-.544-.594-.912-.13-.012.014-.064.009-.09,0-.238-.111-.476-.223-.712-.34-.267-.132-.425-.082-.562.2a1.494,1.494,0,0,0-.075.274l-.082-.014.1-.729c-.2.119-.382.217-.553.331a1.177,1.177,0,0,0-.248.23c-.124.151-.237.311-.354.467h-.016c-.035-.078-.056-.19-.112-.21a1.214,1.214,0,0,0-.35-.017.668.668,0,0,1-.711-.737c0-.157.027-.315.021-.471-.014-.353-.122-.446-.474-.433-.4.015-.4.016-.312-.375.067-.3.131-.594.2-.891-.469-.044-.47-.045-.614.353-.02.055-.007.14-.042.166a1.546,1.546,0,0,1-.433.259c-.2.06-.272-.138-.325-.272a1.676,1.676,0,0,1-.145-.611c0-.347.121-.7.09-1.04-.04-.439.264-.618.5-.866a.244.244,0,0,1,.314-.04c.213.093.446.256.517-.153.006-.033.1-.08.142-.074a2.28,2.28,0,0,1,.721.143c.111.057.154.3.175.47a1.079,1.079,0,0,0,.361.707c0-.449,0-.819-.006-1.19a.9.9,0,0,1,.469-.929c.118-.061.191-.214.311-.266a.643.643,0,0,0,.407-.759.418.418,0,0,1,.092-.252c.2.033.273-.135.333-.247.133-.245.266-.44.583-.468a.313.313,0,0,0,.3-.3.554.554,0,0,1,.263-.348,7.824,7.824,0,0,1,.844-.388.4.4,0,0,1,.156,0,.569.569,0,0,1-.067.127c-.067.074-.142.14-.214.209a1.85,1.85,0,0,0,1.239-.664c-.094.011-.167,0-.2.027-.148.156-.287.256-.5.093s-.171-.323-.058-.507c.1-.158.008-.231-.131-.208a2.39,2.39,0,0,0-.49.166c-.131.053-.208.235-.387.176a1.169,1.169,0,0,1,.664-.5c.354-.16.409-.143.711.165.03.031.092.03.139.044.013-.048.051-.128.036-.139-.135-.1-.162-.2.045-.172a.891.891,0,0,0,.647-.19c.094-.06.2-.152.3-.145a.331.331,0,0,0,.372-.293c.067-.257-.218-.185-.314-.3h0c-.014-.079-.017-.222-.044-.227-.286-.049-.464-.124-.36-.49.038-.134-.1-.325-.173-.482-.066-.14-.164-.154-.262-.019-.033.045-.055.119-.1.134a.655.655,0,0,1-.364.072c-.149-.051-.123-.179-.07-.337.078-.23-.131-.42-.29-.5-.141-.073-.366.017-.554.035-.077.382-.554.546-.525,1.008a.62.62,0,0,1-.275.481,1,1,0,0,0-.562.75.336.336,0,0,1-.118.2.5.5,0,0,1-.262.082.275.275,0,0,1-.067-.2c.053-.221.221-.461.172-.648s-.473-.011-.546-.329c0-.017-.021-.032-.029-.048-.064-.121-.377.025-.283-.256a4.193,4.193,0,0,1,.209-.469.255.255,0,0,1,.083-.082c.359-.266.716-.536,1.081-.793a.483.483,0,0,1,.262-.075c.15.28.372.044.542.09.34.093.269-.044.179-.25a.246.246,0,0,1,.074-.228,2.742,2.742,0,0,0,1-.753c.084-.091.348-.069.505-.02.1.033.052.444-.072.515-.261.148-.454.448-.823.38-.047-.009-.114.092-.171.142.067.019.161.077.2.052.227-.157.329-.073.449.146.076.139.252.224.383.333.033-.044.088-.086.092-.132a.59.59,0,0,0-.048-.19,1.1,1.1,0,0,1,.155.039c.077.031.15.07.225.106.041-.087.117-.175.113-.26a2.1,2.1,0,0,0-.109-.327.165.165,0,0,1,.066-.143c.034-.019.134.007.145.036.088.229.217.168.362.068.1-.072.213-.136.345-.22-.109-.069-.194-.116-.27-.175-.127-.1-.261-.2-.091-.376a.119.119,0,0,0,.021-.108c-.1-.181-.38-.258-.308-.539a3.518,3.518,0,0,0-.469-.009,4.731,4.731,0,0,0-.51.11c-.048-.031-.094-.063-.143-.09-.006,0-.027.021-.041.033l.183.059-.011.109a.453.453,0,0,0-.431.324c-.126.329-.41.427-.691.557a7.518,7.518,0,0,1,.562-.835,1.07,1.07,0,0,1,.129-.124c-.077-.009-.168-.049-.226-.02a.688.688,0,0,0-.2.2,2.371,2.371,0,0,1-1.16.8.252.252,0,0,1-.228-.061c-.07-.139.028-.216.161-.224a1.3,1.3,0,0,0,1.006-.716h.028l.02-.02a.079.079,0,0,0,.017,0c.01,0,.014-.022.02-.033l-.037.037-.036,0-.012.018c-.513.01-.844.409-1.263.618-.092.045-.1.233-.183.328-.05.059-.159.069-.242.1a.74.74,0,0,0,.048-.188c0-.191-.107-.1-.183-.056a13.409,13.409,0,0,0-3.133,2.352,8.7,8.7,0,0,0-1.331,1.643c-.4.666-.777,1.347-1.115,2.045a9.476,9.476,0,0,0-.783,1.7,8.379,8.379,0,0,0-.376,2.994c.016.186.328,2.952.394,3.131a1.911,1.911,0,0,0,.376.257c.027-.012.158-3.2.153-3.227-.054-.305-.134-.607-.169-.914-.038-.338-.038-.68-.054-1.02a11.224,11.224,0,0,0,.576,2.254c.042.1,0,.234.021.348a1,1,0,0,0,.144.473,6.649,6.649,0,0,0,.762.641c.058.046.171.1.216.073.347-.2.493.048.663.272.05.065.167.078.217.143.193.252.624.181.725.566a1.172,1.172,0,0,0,.736.745c.183.083.346.351.547,0,.035-.062.235-.029.37-.034l.006.013.013-.014c-.007.131-.066.295-.009.387a.738.738,0,0,1,.032.727c-.074.179-.134.364-.193.548-.092.286-.418.571-.012.869.014.01-.013.1-.037.137a.657.657,0,0,0,.209.878,2.214,2.214,0,0,1,.61.825,8.016,8.016,0,0,0,.417.7c.063.094.176.23.256.224.433-.034.585.345.866.534a.828.828,0,0,1,.366.552c.125.545.28,1.083.44,1.62.132.441.313.869.426,1.314a2.716,2.716,0,0,0,.518,1.087c.3.36.524.775.857,1.107a4.046,4.046,0,0,0,1.24.758c.075.034.184-.006.292-.013-.046-.05-.068-.088-.1-.1-.371-.187-.755-.357-.728-.88,0-.051-.091-.111-.147-.159s-.162-.075-.171-.124c-.03-.172.036-.394-.05-.516-.155-.222-.033-.291.113-.387-.189-.282.019-.254.206-.292.359-.072.434-.324.2-.619-.036-.047-.076-.091-.154-.183.276.038.546.249.632-.052a1.68,1.68,0,0,1,.468-.734.658.658,0,0,0,.207-.584c-.047-.334.187-.5.429-.635a1.1,1.1,0,0,1,.5-.14.555.555,0,0,0,.472-.3,2.067,2.067,0,0,0,.4-1.312.647.647,0,0,1,.188-.573c.12-.125.245-.247.369-.37A1.107,1.107,0,0,0,139.826,277.413Z" transform="translate(-124.656 -257.738)" fill="#36894d"/>
            <path id="Path_47415" data-name="Path 47415" d="M160.048,275.451a1.369,1.369,0,0,0-.6.55c.3.1.634-.048.848.234.009.012.187-.054.2-.106a.372.372,0,0,0-.15-.463,3.25,3.25,0,0,1-.3-.218c0-.007,0-.013,0-.02a.448.448,0,0,0,.127-.079c.024-.026.015-.082.021-.124-.048.018-.119.023-.138.056a.292.292,0,0,0-.009.147l-.015.008Z" transform="translate(-149.527 -269.5)" fill="#36894d"/>
            <path id="Path_47416" data-name="Path 47416" d="M157.037,262.142a.6.6,0,0,0,.139-.093c-.055-.04-.09-.079-.1-.073a.7.7,0,0,0-.119.09C156.983,262.094,157.021,262.148,157.037,262.142Z" transform="translate(-147.744 -260.029)" fill="#36894d"/>
            <path id="Path_47417" data-name="Path 47417" d="M152.266,266.192l-.12.12c.022.021.052.064.065.06a.618.618,0,0,0,.121-.073Z" transform="translate(-144.306 -263.043)" fill="#36894d"/>
            <path id="Path_47418" data-name="Path 47418" d="M151.235,266.14c-.014.012-.037.024-.038.037s.021.027.034.041l.041-.037Z" transform="translate(-143.628 -263.005)" fill="#36894d"/>
            <path id="Path_47419" data-name="Path 47419" d="M147.773,302.731a1.856,1.856,0,0,1-1.13-.158c-.074-.038-.282.019-.3.074a.583.583,0,0,0,.031.386c.048.109.158.106.3.064a8.766,8.766,0,0,1,.883-.188.85.85,0,0,0,.238.041.469.469,0,0,0,.144-.089C147.879,302.816,147.82,302.725,147.773,302.731Z" transform="translate(-140.143 -289.039)" fill="#36894d"/>
            <path id="Path_47420" data-name="Path 47420" d="M140.123,300.379a.456.456,0,0,0,.116-.008c.065-.021.127-.053.191-.08-.066-.059-.148-.18-.2-.167-.3.078-.482-.114-.645-.278-.27-.272-.568-.182-.866-.129-.044.008-.09.112-.1.175,0,.036.064.1.111.116.069.019.176.035.218,0,.191-.17.3-.05.442.076A.918.918,0,0,0,140.123,300.379Z" transform="translate(-134.642 -286.965)" fill="#36894d"/>
            <path id="Path_47421" data-name="Path 47421" d="M142.926,303.7a.932.932,0,0,0-.2-.081c-.028.024-.068.041-.074.066a.1.1,0,0,0,.038.086.438.438,0,0,0,.15.066.5.5,0,0,0,.135-.007C142.958,303.782,142.957,303.717,142.926,303.7Z" transform="translate(-137.518 -289.793)" fill="#36894d"/>
            <path id="Path_47422" data-name="Path 47422" d="M166.923,256.69c.024-.07.069-.145.053-.2-.028-.1-.161-.2-.148-.277.05-.315-.167-.437-.356-.6a1.722,1.722,0,0,0-1.366-.449c-.443.044-.894.005-1.341.02a.721.721,0,0,0-.261.108l-.008-.006a3.836,3.836,0,0,0-.754.073c-.217.063-.4.238-.654.146-.022-.008-.062.037-.094.057a.429.429,0,0,0,.085.106.323.323,0,0,0,.374.02,3.387,3.387,0,0,1,.65-.254c.089-.028.153.031.069.123-.158.174-.09.2.106.208.315.014.386.082.315.324-.062.212-.193.381.179.427.127.016.078.334-.076.424a2.266,2.266,0,0,1-.26.127.253.253,0,0,0-.136.387,1.938,1.938,0,0,1,.212.656c.066.235.153.493.487.5a.707.707,0,0,1,.258.121c.218.113.293.088.385-.143.06-.152.077-.4.177-.442.28-.106.129-.428.311-.525a4.518,4.518,0,0,1,.652-.216.3.3,0,0,0,.134-.112c.122-.178.3-.194.493-.25s.516,0,.52-.351Z" transform="translate(-151.346 -255.149)" fill="#36894d"/>
            <path id="Path_47423" data-name="Path 47423" d="M167.028,260.484c.04,0,.083-.042.274-.152a.875.875,0,0,0-.235-.037c-.045.009-.082.057-.122.087C166.972,260.418,167,260.481,167.028,260.484Z" transform="translate(-154.884 -258.825)" fill="#36894d"/>
            <path id="Path_47424" data-name="Path 47424" d="M182.013,263.508c-.137-.086-.275-.225-.419-.233-.248-.013-.5.15-.739-.061l-.145.1a.8.8,0,0,1,.094.1,2.054,2.054,0,0,0,.114.182.854.854,0,0,0,1.089,0C182.023,263.578,182.026,263.516,182.013,263.508Z" transform="translate(-164.724 -260.914)" fill="#36894d"/>
            <path id="Path_47425" data-name="Path 47425" d="M213.48,331.479c-.094.006-.112,0-.119.009-.719.638-1.1,1.539-1.748,2.236-.016.017.031.092.049.139.05-.019.121-.023.149-.059.4-.526.792-1.053,1.179-1.586C213.155,331.992,213.3,331.752,213.48,331.479Z" transform="translate(-186.812 -309.711)" fill="#36894d"/>
            <path id="Path_47426" data-name="Path 47426" d="M199.968,274.884a1.292,1.292,0,0,0,.376-1.009,4.787,4.787,0,0,0-.224-2.083.355.355,0,0,1-.015-.175,5.263,5.263,0,0,0-.371-1.994,14.162,14.162,0,0,0-2.539-4.822,24.693,24.693,0,0,0-1.857-1.964,9.963,9.963,0,0,0-3.574-2.044c-.135-.054-.217-.046-.273.1-.065.165-.023.2.1.331.288.3.607.584.463,1.083a.625.625,0,0,0,.056.446,2.179,2.179,0,0,0,.462.524.443.443,0,0,0,.36.082c.277-.091.271-.11.4.173a.27.27,0,0,0-.049.4c.083.129.188.245.268.376a.214.214,0,0,1-.01.155c-.234.035-.254.226-.354.389-.134.216-.168.579-.542.582v-.014l-.058-.04.044.055h.014c-.01.15-.039.26-.236.14-.029-.017-.114.06-.173.093.035.036.064.093.106.1.414.113.492.534.731.806.053.06.028.232-.019.322-.025.048-.175.054-.264.043a3.626,3.626,0,0,0-.394-.091,4.3,4.3,0,0,0-.568.069c.033.149.076.3.1.447a3.294,3.294,0,0,0,.02.407c.074.275.055.57.478.677.3.076.522.2.787-.035a.825.825,0,0,1,.32-.143c.179-.051.223-.171.141-.31-.167-.283-.06-.436.209-.541.17-.066.182-.176.091-.323-.009-.014.1-.136.121-.128a.314.314,0,0,0,.457-.081c.1-.131.24-.083.359.024.305.274.621.537.921.816a.979.979,0,0,1,.234.326c.057.135.045.275-.154.3-.142.019-.165.065-.036.155.161.112.262.12.349-.1a.753.753,0,0,0-.173-.9c-.281-.242-.556-.491-.829-.743-.034-.031-.038-.1-.056-.145.069,0,.162-.035.2,0,.246.195.466.426.725.6a.967.967,0,0,1,.355.434,8.664,8.664,0,0,0,.585.968.161.161,0,0,0,.145.054.175.175,0,0,0,.073-.147.967.967,0,0,0-.1-.3c-.044-.083-.127-.145-.176-.227a.143.143,0,0,1,.016-.137c.055-.041.155-.1.193-.072a.564.564,0,0,1,.183.215c.141.255.261.522.415.77.045.073.228.153.254.129.147-.136.338.181.454-.056.064.159.135.315.192.477a1.629,1.629,0,0,1,.107.392c.043.489-.158.635-.623.454-.108-.042-.2-.117-.307-.168-.221-.11-.445-.214-.7-.339,0,.158,0,.272,0,.386,0,.062,0,.124.006.186a.781.781,0,0,1-.215-.052c-.352-.2-.689-.434-1.051-.618a.457.457,0,0,1-.3-.388,2.649,2.649,0,0,1-.086-.45c.02-.248-.123-.26-.289-.244-.21.02-.468.154-.616.073-.309-.167-.526.118-.789.066-.273.334-.622.253-.953.146-.175-.056-.193,0-.221.141-.016.077-.086.142-.117.219-.111.278-.376.486-.36.824a.435.435,0,0,1-.221.489,1.739,1.739,0,0,0-.519.535c-.155.216-.216.52-.4.687-.235.209-.035.591-.359.723.035.078.066.221.106.224.225.014.261.15.232.322-.051.3.049.628-.165.913-.062.084-.022.256-.005.385.078.617.7.92.862,1.49.375.044.425.4.619.627.137.157.311.279.5.081a.5.5,0,0,1,.6-.1.76.76,0,0,0,.767-.064.971.971,0,0,1,.6-.088c.083.007.139.2.228.281a.57.57,0,0,0,.271.165c.46.074.468.068.348.491a3.246,3.246,0,0,1-.241.653.414.414,0,0,0,.014.377,2.542,2.542,0,0,1,.027,1.763,6.186,6.186,0,0,1-.443.879,1.84,1.84,0,0,0-.406,1.188,1.118,1.118,0,0,1-.123.5c-.219.538-.452,1.071-.681,1.606-.046.106-.1.21-.15.313s-.119.224-.178.336a1.326,1.326,0,0,0,.4.051,1.158,1.158,0,0,0,.413-.181c.147-.094.269-.226.41-.329a10.513,10.513,0,0,0,2.351-2.085,6.978,6.978,0,0,0,1.339-2.175,9.586,9.586,0,0,1,.875-1.89,14.67,14.67,0,0,0,.847-1.975.6.6,0,0,0-.146-.782C199.811,275.288,199.75,275.076,199.968,274.884Z" transform="translate(-171.84 -259.161)" fill="#36894d"/>
          </g>
          <path id="Path_47427" data-name="Path 47427" d="M134.3,334.527s1.812,3.91,7.438,5.054a27.413,27.413,0,0,1-4.45-2.734C135.328,335.254,134.3,333.57,134.3,334.527Z" transform="translate(-131.547 -311.69)" fill="#36894d"/>
        </g>
        <path id="Path_47428" data-name="Path 47428" d="M152.974,264.581a14.771,14.771,0,0,1-20.664,20.664,14.771,14.771,0,1,0,20.664-20.664Z" transform="translate(-126.344 -258.615)" fill="#5fa8d4" opacity="0.28" style="mix-blend-mode: multiply;isolation: isolate"/>
        <path id="Path_47429" data-name="Path 47429" d="M164.594,374.177a6.387,6.387,0,0,0-6.264-4.787c-.268,0-.521.015-.766.037a6.425,6.425,0,0,1,5.269,4.722h-10.6l0,.029Z" transform="translate(-140.583 -333.535)" fill="#bcbcbc" opacity="0.5" style="mix-blend-mode: multiply;isolation: isolate"/>
      </g>
      <g id="Group_215904" data-name="Group 215904" transform="translate(78.205 4.106)">
        <path id="Path_47430" data-name="Path 47430" d="M304.644,194.248l11.985,9.517a3.029,3.029,0,0,0,1.731.864l16.734,1.116c.517.076.806-.445.424-.765l-12.666-10.015a3.056,3.056,0,0,0-1.329-.637l-16.373-.8C304.648,193.423,304.31,193.9,304.644,194.248Z" transform="translate(-304.51 -193.514)" fill="#0e0f11"/>
        <path id="Path_47431" data-name="Path 47431" d="M335.094,205.745l-.046,0L322.472,195.8a3.057,3.057,0,0,0-1.329-.637l-16.354-.8-.145-.115c-.333-.345,0-.825.506-.719l16.373.8a3.056,3.056,0,0,1,1.329.637l12.666,10.015C335.9,205.3,335.61,205.821,335.094,205.745Z" transform="translate(-304.51 -193.514)" fill="#2d2e33"/>
        <path id="Path_47432" data-name="Path 47432" d="M363.406,196.418a3.049,3.049,0,0,1,1.274.622l12.666,10.015c.382.32.092.841-.424.765l-.046,0L364.3,197.874a3.049,3.049,0,0,0-1.274-.622Z" transform="translate(-346.339 -195.59)" fill="#2d2e33"/>
        <path id="Path_47433" data-name="Path 47433" d="M342.223,210.968l-2.281,5.434a29.69,29.69,0,0,1-8.626-2.588c-4.924-2.244-5.311-3.588-5.311-3.588l1.523-3.342.678-1.489C336.565,204.169,342.223,210.968,342.223,210.968Z" transform="translate(-319.875 -201.901)" fill="#2d2e33"/>
        <line id="Line_548" data-name="Line 548" x1="3.114" y2="8.156" transform="translate(25.237 9.365)" fill="none" stroke="#e0ac19" stroke-miterlimit="10" stroke-width="1"/>
        <path id="Path_47434" data-name="Path 47434" d="M392,253.209s.336.063.391.258-.109.469-.256.457-.667-.06-.764-.256.072-.39.108-.439C391.574,253.1,392,253.209,392,253.209Z" transform="translate(-366.579 -236.155)" fill="#e0ac19"/>
        <path id="Path_47435" data-name="Path 47435" d="M387.332,254.21s-.987,4.083-1.155,4.174l-.167.092s-.326,1.175-.417,1.467-.369.4-.151-.406a21.764,21.764,0,0,1-.7,2.144c-.107-.041-.228.067-.207-.361s.9-3.131.9-3.131-.191.374-.313.319,1.659-4.552,1.659-4.552Z" transform="translate(-361.709 -236.719)" fill="#e0ac19"/>
      </g>
      <rect id="Rectangle_163428" data-name="Rectangle 163428" width="125.319" height="1.205" transform="translate(0 59.049)" fill="#232428"/>
      <path id="Path_47436" data-name="Path 47436" d="M368.676,365.711h3.158a22.69,22.69,0,0,1,0,7.1l-1.375-1.956-1.841,1.956S369.529,368.032,368.676,365.711Z" transform="translate(-272.131 -312.497)" fill="#9a0605"/>
    </g>
  </g>
</svg>
