<svg id="profile-svgrepo-com" xmlns="http://www.w3.org/2000/svg" width="16.634" height="23.628" viewBox="0 0 16.634 23.628">
  <path id="Path_41011" data-name="Path 41011" d="M12.862,2a5.607,5.607,0,0,0-.142,11.211.953.953,0,0,1,.26,0h.083A5.607,5.607,0,0,0,12.862,2Z" transform="translate(-4.546 -2)" fill="#022d4e" opacity="0.76"/>
  <path id="Path_41012" data-name="Path 41012" d="M19.279,14.4a11.73,11.73,0,0,0-11.991,0,4.663,4.663,0,0,0-2.327,3.816,4.624,4.624,0,0,0,2.316,3.792,10.915,10.915,0,0,0,6,1.666,10.915,10.915,0,0,0,6-1.666A4.661,4.661,0,0,0,21.595,18.2,4.652,4.652,0,0,0,19.279,14.4Z" transform="translate(-4.961 -0.049)" fill="#022d4e"/>
</svg>
